<?xml version="1.0" encoding="UTF-8" standalone="no"?>
<!-- Created with Inkscape (http://www.inkscape.org/) -->

<svg
   width="180"
   height="180"
   viewBox="0 0 47.624998 47.624998"
   version="1.1"
   id="svg1"
   sodipodi:docname="cannon.svg"
   inkscape:version="1.4.3 (0d15f75042, 2025-12-25)"
   inkscape:export-filename="seminar_2026/items/icon_Gravity.png"
   inkscape:export-xdpi="96"
   inkscape:export-ydpi="96"
   xmlns:inkscape="http://www.inkscape.org/namespaces/inkscape"
   xmlns:sodipodi="http://sodipodi.sourceforge.net/DTD/sodipodi-0.dtd"
   xmlns="http://www.w3.org/2000/svg"
   xmlns:svg="http://www.w3.org/2000/svg">
  <sodipodi:namedview
     id="namedview1"
     pagecolor="#ff8e8e"
     bordercolor="#000000"
     borderopacity="0.25"
     inkscape:showpageshadow="2"
     inkscape:pageopacity="0.0"
     inkscape:pagecheckerboard="0"
     inkscape:deskcolor="#d1d1d1"
     inkscape:document-units="mm"
     inkscape:zoom="0.70710682"
     inkscape:cx="-94.045197"
     inkscape:cy="238.29497"
     inkscape:window-width="2194"
     inkscape:window-height="1152"
     inkscape:window-x="0"
     inkscape:window-y="0"
     inkscape:window-maximized="1"
     inkscape:current-layer="layer1"
     showgrid="false" />
  <defs
     id="defs1" />
  <g
     inkscape:label="Layer 1"
     inkscape:groupmode="layer"
     id="layer1"
     transform="translate(130.61197,-70.511134)">
    <g
       id="g1"
       transform="rotate(42.233626,-102.86089,115.90585)">
      <path
         id="rect1-1"
         style="fill:#c1b490;fill-opacity:1;stroke-width:0.654724;stroke-linecap:round"
         d="m -134.00397,122.21137 c 0.81867,2.60343 5.44407,6.48566 12.34313,6.48566 6.89906,0 10.26116,-2.43861 12.64056,-6.48566 8.3279,-13.69194 -5.05623,-25.762473 0,-38.013159 0,-2.785948 -5.59279,-5.044405 -12.49185,-5.044405 -6.89906,0 -13.39355,2.481546 -12.49184,5.044405 3.86652,10.989585 -4.7588,22.879959 0,38.013159 z"
         sodipodi:nodetypes="ssccsss" />
      <circle
         style="fill:#71584b;fill-opacity:1;stroke-width:0.264583;stroke-linecap:round"
         id="path2"
         cx="-120.77135"
         cy="115.59845"
         r="6.8117061" />
      <path
         style="fill:#71584b;fill-opacity:1;stroke-width:0.264583;stroke-linecap:round"
         d="m -125.74545,105.36218 4.57853,-6.56306 6.1371,6.82765 h -2.38125 l -4.23333,-3.70417 -1.98438,3.96875 z"
         id="path3" />
      <path
         style="fill:#71584b;fill-opacity:1;stroke-width:0.264583;stroke-linecap:round"
         d="m -126.01003,99.622127 4.57853,-6.563063 6.13709,6.827647 h -2.38125 l -4.23333,-3.704167 -1.98438,3.968746 z"
         id="path3-1" />
      <path
         style="fill:#71584b;fill-opacity:1;stroke-width:0.264583;stroke-linecap:round"
         d="m -126.27462,93.536711 4.57853,-6.563063 6.1371,6.827647 h -2.38125 l -4.23333,-3.704167 -1.98438,3.96875 z"
         id="path3-0" />
    </g>
  </g>
</svg>
