<?xml version="1.0" encoding="UTF-8" standalone="no"?>
<!-- Created with Inkscape (http://www.inkscape.org/) -->

<svg
   width="1024"
   height="1023.9998"
   viewBox="0 0 270.9333 270.93327"
   version="1.1"
   id="svg1"
   inkscape:version="1.4.4 (dcaf3e7d9e, 2026-05-05)"
   sodipodi:docname="tilemap_ground.svg"
   inkscape:export-filename="landscape_tiles.png"
   inkscape:export-xdpi="192"
   inkscape:export-ydpi="192"
   xmlns:inkscape="http://www.inkscape.org/namespaces/inkscape"
   xmlns:sodipodi="http://sodipodi.sourceforge.net/DTD/sodipodi-0.dtd"
   xmlns="http://www.w3.org/2000/svg"
   xmlns:svg="http://www.w3.org/2000/svg">
  <sodipodi:namedview
     id="namedview1"
     pagecolor="#a0a0a0"
     bordercolor="#666666"
     borderopacity="1.0"
     inkscape:showpageshadow="2"
     inkscape:pageopacity="0.0"
     inkscape:pagecheckerboard="0"
     inkscape:deskcolor="#d1d1d1"
     inkscape:document-units="px"
     inkscape:zoom="6.6571832"
     inkscape:cx="76.458764"
     inkscape:cy="53.626285"
     inkscape:window-width="2327"
     inkscape:window-height="1227"
     inkscape:window-x="0"
     inkscape:window-y="0"
     inkscape:window-maximized="1"
     inkscape:current-layer="layer1"
     showguides="true">
    <sodipodi:guide
       position="47.946087,136.65295"
       orientation="0,-1"
       id="guide3"
       inkscape:locked="false" />
  </sodipodi:namedview>
  <defs
     id="defs1" />
  <g
     inkscape:label="Layer 1"
     inkscape:groupmode="layer"
     id="layer1">
    <rect
       style="fill:#3f6338;fill-opacity:1;stroke-width:0.741;stroke-linecap:round"
       id="rect2-3-1-3"
       width="33.866669"
       height="16.93338"
       x="0"
       y="0"
       rx="1.7986096"
       ry="1.7986096" />
    <rect
       style="fill:#3f6338;fill-opacity:1;stroke-width:0.741;stroke-linecap:round"
       id="rect2-3-1-6"
       width="33.866669"
       height="16.93338"
       x="1.9649415e-05"
       y="67.73333"
       rx="1.7986096"
       ry="1.7986096" />
    <path
       id="rect1"
       style="fill:#827865;fill-opacity:1;stroke-width:0.741;stroke-linecap:round"
       d="M 27.306543,3.1000966 33.866668,6.2e-5 V 16.93338 33.866697 H 16.93335 3.23e-5 V 16.93338 C 0.2165813,0.018954 10.508946,3.1257596 27.306543,3.1000966 Z"
       sodipodi:nodetypes="cccccccc" />
    <path
       id="rect1-0"
       style="fill:#3f6338;fill-opacity:1;stroke-width:0.741;stroke-linecap:round"
       d="m 16.93335,6.21e-5 h 16.933318 l 1e-6,16.9333179 c -9.378152,-0.246793 -5.57565,-5.887787 -8.64294,-5.711506 -2.503191,-0.211537 -3.601302,6.69868 -8.290378,6.522399 C 14.641697,17.638504 13.957273,14.330469 11.057693,14.28061 8.1581129,14.23075 5.7581061,17.051247 3.215e-5,16.93338 0.21658115,0.0189541 0.13575315,0.0257251 16.93335,6.21e-5 Z"
       sodipodi:nodetypes="cccccscc" />
    <path
       id="rect1-25"
       style="fill:#827865;fill-opacity:1;stroke-width:0.741;stroke-linecap:round"
       d="M 17.21154,74.648789 C 13.529528,74.515476 0.21654628,67.752397 0,84.666659 V 101.59999 H 16.933332 33.866664 V 84.666659 C 33.841004,67.869114 23.712873,74.467895 17.21154,74.648789 Z"
       sodipodi:nodetypes="ccccccc" />
    <path
       id="rect1-25-4"
       style="fill:#827865;fill-opacity:1;stroke-width:0.741;stroke-linecap:round"
       d="m -32.01458,55.033328 c -16.797544,0.02566 -16.716786,0.01907 -16.933332,16.933332 v 16.933331 h 16.933332 16.933332 V 71.96666 c -0.02566,-16.797545 -0.01906,-16.716785 -16.933332,-16.933332 z" />
    <rect
       style="fill:#3f6338;fill-opacity:1;stroke-width:0.741;stroke-linecap:round"
       id="rect2-3-1-5"
       width="33.866669"
       height="16.93338"
       x="33.866661"
       y="67.733276"
       rx="1.7986096"
       ry="1.7986096" />
    <path
       id="rect1-25-6"
       style="fill:#827865;fill-opacity:1;stroke-width:0.741;stroke-linecap:round"
       d="m 67.733327,84.666658 c -0.02566,-16.797541 -9.160198,-10.5962 -26.07446,-10.81275 l -7.792203,-6.120581 v 16.933331 16.933332 h 16.933331 c 16.797545,-0.0257 16.716785,-0.0191 16.933332,-16.933332 z"
       sodipodi:nodetypes="ccccccc" />
    <rect
       style="fill:#3f6338;fill-opacity:1;stroke-width:0.741;stroke-linecap:round"
       id="rect2-3-1-2"
       width="33.866669"
       height="16.93338"
       x="-2.3505859e-06"
       y="101.59999"
       rx="1.7986096"
       ry="1.7986096" />
    <path
       id="rect1-25-6-8"
       style="fill:#827865;stroke-width:0.741;stroke-linecap:round;fill-opacity:1"
       d="m 50.799995,135.46665 c 16.79754,-0.0257 16.71678,-0.0191 16.93333,-16.93333 v -16.93333 h -16.93333 -16.93333 v 16.93333 c 0.0257,16.79754 0.0191,16.71678 16.93333,16.93333 z" />
    <rect
       style="fill:#3f6338;fill-opacity:1;stroke-width:0.741;stroke-linecap:round"
       id="rect2-3-1-5-2"
       width="33.866669"
       height="16.93338"
       x="101.59992"
       y="67.73333"
       rx="1.7986096"
       ry="1.7986096" />
    <path
       id="rect1-25-6-8-5"
       style="fill:#827865;fill-opacity:1;stroke-width:0.741;stroke-linecap:round"
       d="m 118.53326,76.20002 c -16.79754,0.02566 -16.71517,-8.447623 -16.93172,8.466639 0.0257,16.797541 0.0191,16.716781 16.93333,16.933331 16.79755,-0.0257 16.71678,-0.0191 16.93333,-16.933331 -0.0257,-16.797545 -0.0207,-8.250092 -16.93494,-8.466639 z"
       sodipodi:nodetypes="ccccc" />
    <path
       id="rect1-25-6-8-0"
       style="fill:#827865;fill-opacity:1;stroke-width:0.741;stroke-linecap:round"
       d="m 2e-6,118.53332 c 0.0257,16.79754 0.0191,16.71678 16.93333,16.93333 h 16.93333 v -16.93333 -16.93333 l -6.599881,5.36544 C 10.469241,106.99113 0.216552,101.61909 2e-6,118.53332 Z"
       sodipodi:nodetypes="ccccccc" />
    <path
       id="rect1-8"
       style="fill:#827865;stroke-width:0.741;stroke-linecap:round;fill-opacity:1"
       d="M 84.666618,67.733327 H 67.733301 v -16.93332 -16.93331 h 16.933317 16.933322 v 16.93331 c -0.21655,16.91443 -0.13572,16.90766 -16.933322,16.93332 z"
       sodipodi:nodetypes="cccccccc" />
    <path
       id="rect1-8-5"
       style="fill:#827865;stroke-width:0.741;stroke-linecap:round;fill-opacity:1"
       d="m 3.6e-5,50.800007 v -16.93331 h 16.933318 16.93331 v 16.93331 16.93332 H 16.933354 C 0.018926,67.516777 0.025695,67.597607 3.6e-5,50.800007 Z"
       sodipodi:nodetypes="cccccccc" />
    <rect
       style="fill:#3f6338;fill-opacity:1;stroke-width:0.741;stroke-linecap:round"
       id="rect2-3-1-0"
       width="33.866669"
       height="16.93338"
       x="67.733276"
       y="0.098951548"
       rx="1.7986096"
       ry="1.7986096" />
    <path
       id="rect1-2"
       style="fill:#827865;fill-opacity:1;stroke-width:0.741;stroke-linecap:round"
       d="M 101.59994,16.93338 V 33.866697 H 84.666616 67.733302 V 16.93338 6.26e-5 l 5.606265,3.616707 C 90.254001,3.8333186 101.57428,0.1357826 101.59994,16.93338 Z"
       sodipodi:nodetypes="cccccccc" />
    <path
       id="rect1-7-5"
       style="fill:#827865;fill-opacity:1;stroke-width:0.741;stroke-linecap:round"
       d="M 33.866668,6.22e-5 H 50.799985 67.733302 V 16.93338 33.866697 H 50.799985 33.866668 Z"
       sodipodi:nodetypes="cccccccc" />
    <path
       id="rect1-7-5-3"
       style="fill:#827865;stroke-width:0.741;stroke-linecap:round;fill-opacity:1"
       d="m 101.59994,6.2e-5 h 16.93332 16.93332 V 16.93338 33.866697 H 118.53326 101.59994 V 16.93338 Z"
       sodipodi:nodetypes="ccccccccc" />
    <path
       id="rect1-7-5-3-2"
       style="fill:#827865;fill-opacity:1;stroke-width:0.741;stroke-linecap:round"
       d="m 67.733296,101.59996 h 16.933324 16.93332 v 16.93332 16.93332 H 84.66662 67.733296 v -16.93332 z"
       sodipodi:nodetypes="ccccccccc" />
    <path
       id="rect1-7-5-3-49"
       style="fill:#827865;fill-opacity:1;stroke-width:0.741;stroke-linecap:round"
       d="m 67.733299,67.733327 h 16.93332 16.933321 V 84.666645 101.59996 H 84.66662 67.733299 V 84.666645 Z"
       sodipodi:nodetypes="ccccccccc" />
    <path
       id="rect1-7-5-3-6"
       style="fill:#827865;stroke-width:0.741;stroke-linecap:round;fill-opacity:1"
       d="m 101.59994,33.866697 h 16.93332 16.93332 V 50.800015 67.733332 H 118.53326 101.59994 V 50.800015 Z"
       sodipodi:nodetypes="ccccccccc" />
    <path
       id="rect1-7-5-3-4"
       style="fill:#827865;stroke-width:0.741;stroke-linecap:round;fill-opacity:1"
       d="m 135.46658,6.21e-5 h 16.93332 16.93332 V 16.93338 33.866697 H 152.3999 135.46658 V 16.93338 Z"
       sodipodi:nodetypes="ccccccccc" />
    <path
       id="rect1-7-5-3-5"
       style="fill:#827865;stroke-width:0.741;stroke-linecap:round;fill-opacity:1"
       d="m 135.46659,33.866697 h 16.93331 16.93332 V 50.800015 67.733332 H 152.3999 135.46659 V 50.800015 Z"
       sodipodi:nodetypes="ccccccccc" />
    <rect
       style="fill:#827865;fill-opacity:1;stroke-width:0.741;stroke-linecap:round"
       id="rect2-3"
       width="33.866669"
       height="16.93338"
       x="-12.435416"
       y="-21.695831" />
    <rect
       style="fill:#3f6338;fill-opacity:1;stroke-width:0.741;stroke-linecap:round"
       id="rect2-3-1"
       width="33.866669"
       height="16.93338"
       x="-50.535412"
       y="6.0854158"
       rx="1.7986096"
       ry="1.7986096" />
    <rect
       style="fill:#827865;fill-opacity:1;stroke-width:0.741;stroke-linecap:round"
       id="rect2-3-5"
       width="33.866669"
       height="16.93338"
       x="-66.213806"
       y="96.053703" />
    <path
       id="rect1-25-62"
       style="fill:#3f6338;fill-opacity:1;stroke-width:0.741;stroke-linecap:round"
       d="M 16.931781,67.733376 C 0.1365335,67.759036 0.2165135,67.753066 5.0000001e-7,84.665158 v 1.87e-4 1.88e-4 1.88e-4 1.87e-4 1.87e-4 1.88e-4 c 0,0 3.72577399999999,-1.258617 0,1.87e-4 v 1.88e-4 c 0,0 3.88077079999999,-1.480761 4.86794469999999,-1.480761 2.0448601,0 2.6820597,2.891009 3.5987212,1.480761 1.7628106,0.07051 1.7653986,-1.410248 3.3166716,-1.339736 1.833323,0 3.034622,3.102546 4.303845,3.173059 1.974348,-0.141025 6.066656,-3.384596 7.124342,-3.384596 2.32691,0 1.483349,2.961521 2.188473,2.961521 1.410248,0 2.823085,-3.80767 4.656408,-3.737158 1.685627,0.205961 1.906423,2.185885 3.810258,2.32691 C 33.841003,67.869233 33.84739,67.94992 16.933332,67.733376 Z"
       sodipodi:nodetypes="sccccccccccccccccccs" />
    <path
       id="rect1-25-62-0"
       style="fill:#3f6338;fill-opacity:1;stroke-width:0.741;stroke-linecap:round"
       d="m 118.53636,67.733332 c 16.79525,0.02566 16.71527,0.01969 16.93178,16.931782 v 1.87e-4 1.88e-4 1.88e-4 1.87e-4 1.87e-4 1.88e-4 c 0,0 -3.72577,-1.258617 0,1.87e-4 v 1.88e-4 c 0,0 -3.88077,-0.35663 -4.86795,-0.35663 -2.04486,0 -0.77103,2.553769 -4.2732,2.829718 -2.5497,0.07051 -3.67642,-0.286117 -5.22769,-0.215605 -1.83332,0 -3.14703,2.428068 -4.41625,2.498581 -1.97435,-0.141025 -3.36875,-6.307337 -4.42644,-6.307337 -2.3269,0 -4.18125,4.422891 -4.88638,4.422891 -1.41025,0 -0.46241,-4.144909 -2.29574,-4.074397 -1.68562,0.205961 -1.56918,1.061754 -3.47301,1.202779 0.0257,-16.797425 0.0193,-16.716738 16.93333,-16.933282 z"
       sodipodi:nodetypes="sccccccccccccccccccs" />
    <path
       id="rect2-3-4"
       style="fill:#3f6338;stroke-width:0.741;stroke-linecap:round;fill-opacity:1"
       d="m 135.46658,33.866669 h 33.86667 v 16.93338 c -2.60896,0 -3e-5,-2.369855 -4.0622,-1.924182 -2.85975,0.313751 -5.15673,5.11712 -7.20475,5.097241 -5.44838,-0.05288 -4.60871,-3.032069 -5.6664,-3.173094 -1.69229,-0.282049 -3.66663,2.18592 -5.49995,2.044895 -1.26923,0 -2.26158,-2.679472 -4.659,-2.749984 -2.04486,-0.28205 -2.47311,0.775636 -6.77437,0.705124 z"
       sodipodi:nodetypes="cccssccccc" />
    <path
       id="rect1-0-04-9"
       style="fill:#3f6338;fill-opacity:1;stroke-width:0.741;stroke-linecap:round"
       d="M 50.799995,67.733327 H 33.866677 l -1e-6,16.933318 c 6.910217,0.07051 5.329134,-6.074362 13.0855,-6.00385 2.04486,-0.07051 0.04572,8.663877 6.730999,8.466508 2.652527,-0.07831 3.695324,-3.215695 7.621198,-3.279851 3.925874,-0.06416 2.409728,0.887705 6.428936,0.817193 C 67.516759,67.752219 67.597589,67.75899 50.799995,67.733327 Z"
       sodipodi:nodetypes="ccccsscc" />
    <path
       id="rect2-3-4-1"
       style="fill:#3f6338;fill-opacity:1;stroke-width:0.741;stroke-linecap:round"
       d="M 101.59995,67.733327 H 67.733285 v 16.93338 c 2.608959,0 3e-5,-2.369855 4.062195,-1.924182 2.85975,0.313751 5.15673,5.11712 7.20475,5.097241 5.44838,-0.05288 4.60871,-3.032069 5.6664,-3.173094 1.69229,-0.282049 3.66663,2.18592 5.49995,2.044895 1.26923,0 2.26158,-2.679472 4.659,-2.749984 2.04486,-0.28205 2.47311,0.775636 6.77437,0.705124 z"
       sodipodi:nodetypes="cccssccccc" />
    <path
       id="rect1-0-0"
       style="fill:#58864d;fill-opacity:1;stroke-width:0.741;stroke-linecap:round"
       d="m 86.783312,-29.897914 h 16.933318 v 16.933318 h 0 -16.933317 -16.933319 c 0.216549,-16.914426 0.135721,-16.907655 16.933318,-16.933318 z"
       sodipodi:nodetypes="ccccccc" />
    <path
       id="rect1-0-04"
       style="fill:#3f6338;fill-opacity:1;stroke-width:0.741;stroke-linecap:round"
       d="M 84.666616,6.26e-5 H 67.733298 l -1e-6,16.9333184 c 6.910217,0.07051 0.433412,-6.910217 8.189778,-6.839705 2.04486,-0.07051 6.135522,7.230983 12.8208,7.033614 2.652527,-0.07831 2.023614,-3.335103 5.949488,-3.399259 3.925874,-0.06416 2.887359,3.275862 6.906567,3.20535 C 101.38338,0.0189546 101.46421,0.0257256 84.666616,6.26e-5 Z"
       sodipodi:nodetypes="ccccsscc" />
    <path
       id="rect1-0-04-9-5"
       style="fill:#3f6338;fill-opacity:1;stroke-width:0.741;stroke-linecap:round"
       d="m 16.933316,101.59999 h 16.933318 l 1e-6,16.93332 c -6.910217,0.0705 -2.149611,-1.78201 -9.905977,-1.71149 -2.04486,-0.0705 -2.589338,7.39206 -9.274617,7.19469 -2.652527,-0.0783 -1.946587,-6.23624 -5.8724609,-6.3004 -3.925874,-0.0642 -4.7943701,0.88771 -8.8135781,0.8172 0.21655,-16.91443 0.13572,-16.90766 16.933314,-16.93332 z"
       sodipodi:nodetypes="ccccsscc" />
  </g>
</svg>
