<?xml version="1.0" encoding="UTF-8" standalone="no"?>
<!-- Created with Inkscape (http://www.inkscape.org/) -->

<svg
   width="512"
   height="512"
   viewBox="0 0 135.46666 135.46666"
   version="1.1"
   id="svg1"
   sodipodi:docname="cannon.svg"
   inkscape:version="1.4.4 (dcaf3e7d9e, 2026-05-05)"
   inkscape:export-filename="seminar_2026/items/icon_Gravity.png"
   inkscape:export-xdpi="96"
   inkscape:export-ydpi="96"
   xmlns:inkscape="http://www.inkscape.org/namespaces/inkscape"
   xmlns:sodipodi="http://sodipodi.sourceforge.net/DTD/sodipodi-0.dtd"
   xmlns="http://www.w3.org/2000/svg"
   xmlns:svg="http://www.w3.org/2000/svg">
  <sodipodi:namedview
     id="namedview1"
     pagecolor="#ff8e8e"
     bordercolor="#000000"
     borderopacity="0.25"
     inkscape:showpageshadow="2"
     inkscape:pageopacity="0.0"
     inkscape:pagecheckerboard="0"
     inkscape:deskcolor="#d1d1d1"
     inkscape:document-units="mm"
     inkscape:zoom="0.70710682"
     inkscape:cx="-64.346714"
     inkscape:cy="271.52899"
     inkscape:window-width="2327"
     inkscape:window-height="1227"
     inkscape:window-x="0"
     inkscape:window-y="0"
     inkscape:window-maximized="1"
     inkscape:current-layer="layer1"
     showgrid="false" />
  <defs
     id="defs1" />
  <g
     inkscape:label="Layer 1"
     inkscape:groupmode="layer"
     id="layer1"
     transform="translate(138.10025,-62.022038)">
    <rect
       style="fill:#000000;fill-opacity:1;stroke-width:0.720318;stroke-linecap:round"
       id="rect2"
       width="33.866665"
       height="67.73333"
       x="-310.97018"
       y="90.459511"
       rx="0"
       ry="0" />
    <path
       id="rect1-1"
       style="fill:#c1b490;fill-opacity:1;stroke-width:0.654724;stroke-linecap:round"
       d="m -134.00397,122.21137 c 0.81867,2.60343 5.44407,6.48566 12.34313,6.48566 6.89906,0 10.26116,-2.43861 12.64056,-6.48566 8.3279,-13.69194 -5.05623,-25.762473 0,-38.013159 0,-2.785948 -5.59279,-5.044405 -12.49185,-5.044405 -6.89906,0 -13.39355,2.481546 -12.49184,5.044405 3.86652,10.989585 -4.7588,22.879959 0,38.013159 z"
       sodipodi:nodetypes="ssccsss" />
    <circle
       style="fill:#71584b;fill-opacity:1;stroke-width:0.264583;stroke-linecap:round"
       id="path2"
       cx="-120.77135"
       cy="115.59845"
       r="6.8117061" />
    <path
       style="fill:#71584b;fill-opacity:1;stroke-width:0.264583;stroke-linecap:round"
       d="m -125.74545,105.36218 4.57853,-6.56306 6.1371,6.82765 h -2.38125 l -4.23333,-3.70417 -1.98438,3.96875 z"
       id="path3" />
    <path
       style="fill:#71584b;fill-opacity:1;stroke-width:0.264583;stroke-linecap:round"
       d="m -126.01003,99.622127 4.57853,-6.563063 6.13709,6.827647 h -2.38125 l -4.23333,-3.704167 -1.98438,3.968746 z"
       id="path3-1" />
    <path
       style="fill:#71584b;fill-opacity:1;stroke-width:0.264583;stroke-linecap:round"
       d="m -126.27462,93.536711 4.57853,-6.563063 6.1371,6.827647 h -2.38125 l -4.23333,-3.704167 -1.98438,3.96875 z"
       id="path3-0" />
    <rect
       style="fill:#000000;fill-opacity:1;stroke-width:0.720318;stroke-linecap:round"
       id="rect2-68"
       width="33.866665"
       height="67.73333"
       x="-209.37016"
       y="158.19284"
       rx="0"
       ry="0" />
    <path
       id="rect1-1-9"
       style="fill:#c1b490;fill-opacity:1;stroke-width:0.654724;stroke-linecap:round"
       d="m -32.403968,189.94471 c 0.81867,2.60343 5.44407,6.48566 12.34313,6.48566 6.89906,0 10.26116,-2.43861 12.64056,-6.48566 8.32790004,-13.69194 -9.60726,-31.82391 0,-50.71316 0,-2.78595 -5.59279,-5.04441 -12.49185,-5.04441 -6.89906,0 -13.771845,2.64797 -12.49184,5.04441 10.018615,18.75696 -4.7588,35.57996 0,50.71316 z"
       sodipodi:nodetypes="ssccsss" />
    <circle
       style="fill:#71584b;fill-opacity:1;stroke-width:0.264583;stroke-linecap:round"
       id="path2-26"
       cx="-19.171345"
       cy="183.33179"
       r="6.8117061" />
    <path
       style="fill:#a5f8ad;fill-opacity:1;stroke-width:0.264583;stroke-linecap:round"
       d="m -24.145448,173.09552 4.57853,-6.56306 6.1371,6.82765 h -2.38125 l -4.23333,-3.70417 -1.98438,3.96875 z"
       id="path3-6" />
    <path
       style="fill:#a5f8ad;fill-opacity:1;stroke-width:0.264583;stroke-linecap:round"
       d="m -24.410028,160.47628 4.57853,-6.56306 6.13709,6.82765 h -2.38125 l -4.23333,-3.70417 -1.98438,3.96875 z"
       id="path3-1-4" />
    <path
       style="fill:#a5f8ad;fill-opacity:1;stroke-width:0.264583;stroke-linecap:round"
       d="m -24.674618,148.04086 4.57853,-6.56307 6.1371,6.82765 h -2.38125 l -4.23333,-3.70417 -1.98438,3.96875 z"
       id="path3-0-95" />
    <rect
       style="fill:#000000;fill-opacity:1;stroke-width:0.720318;stroke-linecap:round"
       id="rect2-6"
       width="33.866665"
       height="67.73333"
       x="-310.97018"
       y="158.19284"
       rx="0"
       ry="0" />
    <path
       id="rect1-1-8"
       style="fill:#c1b490;fill-opacity:1;stroke-width:0.654724;stroke-linecap:round"
       d="m -134.00397,189.94471 c 0.81867,2.60343 5.44407,6.48566 12.34313,6.48566 6.89906,0 10.26116,-2.43861 12.64056,-6.48566 8.3279,-13.69194 -5.05623,-19.94164 0,-32.19233 0,-2.78594 -5.59279,-5.0444 -12.49185,-5.0444 -6.89906,0 -13.39355,2.48154 -12.49184,5.0444 3.86652,10.98959 -4.7588,17.05913 0,32.19233 z"
       sodipodi:nodetypes="ssccsss" />
    <circle
       style="fill:#71584b;fill-opacity:1;stroke-width:0.264583;stroke-linecap:round"
       id="path2-8"
       cx="-120.77134"
       cy="183.33179"
       r="6.8117061" />
    <path
       style="fill:#ff3e37;fill-opacity:1;stroke-width:0.228868;stroke-linecap:round"
       d="m -125.74545,173.22874 4.57853,-4.91082 6.1371,5.1088 h -2.38125 l -4.23333,-2.77165 -1.98438,2.96962 z"
       id="path3-4" />
    <path
       style="fill:#71584b;fill-opacity:1;stroke-width:0.228868;stroke-linecap:round"
       d="m -126.01003,168.93374 4.57853,-4.91082 6.13709,5.10879 h -2.38125 l -4.23333,-2.77165 -1.98438,2.96962 z"
       id="path3-1-3" />
    <path
       style="fill:#71584b;fill-opacity:1;stroke-width:0.228868;stroke-linecap:round"
       d="m -126.27462,164.38031 4.57853,-4.91082 6.1371,5.1088 h -2.38125 l -4.23333,-2.77165 -1.98438,2.96962 z"
       id="path3-0-1" />
    <rect
       style="fill:#000000;fill-opacity:1;stroke-width:0.720318;stroke-linecap:round"
       id="rect2-4"
       width="33.866665"
       height="67.73333"
       x="-277.10352"
       y="158.19284"
       rx="0"
       ry="0" />
    <path
       id="rect1-1-7"
       style="fill:#c1b490;fill-opacity:1;stroke-width:0.654724;stroke-linecap:round"
       d="m -100.1373,189.9447 c 0.818669,2.60343 5.444069,6.48566 12.343129,6.48566 6.89906,0 10.26116,-2.43861 12.64056,-6.48566 8.3279,-13.69194 -5.05623,-9.88748 0,-22.13816 0,-2.78595 -5.59279,-5.04441 -12.49185,-5.04441 -6.89906,0 -13.393549,2.48155 -12.491839,5.04441 3.866519,10.98958 -4.7588,7.00496 0,22.13816 z"
       sodipodi:nodetypes="ssccsss" />
    <circle
       style="fill:#71584b;fill-opacity:1;stroke-width:0.264583;stroke-linecap:round"
       id="path2-6"
       cx="-86.904678"
       cy="183.33177"
       r="6.8117061" />
    <path
       style="fill:#ff3e37;fill-opacity:1;stroke-width:0.200485;stroke-linecap:round"
       d="m -91.878781,175.43753 4.57853,-3.76831 6.1371,3.92023 h -2.38125 l -4.23333,-2.12682 -1.98438,2.27873 z"
       id="path3-5" />
    <path
       style="fill:#ff3e37;fill-opacity:1;stroke-width:0.200485;stroke-linecap:round"
       d="m -92.143361,172.14176 4.57853,-3.7683 6.13709,3.92022 h -2.38125 l -4.23333,-2.12682 -1.98438,2.27874 z"
       id="path3-1-6" />
    <path
       style="fill:#71584b;fill-opacity:1;stroke-width:0.200485;stroke-linecap:round"
       d="m -92.407951,168.64771 4.57853,-3.76831 6.1371,3.92022 h -2.38125 l -4.23333,-2.12682 -1.98438,2.27874 z"
       id="path3-0-9" />
    <rect
       style="fill:#000000;fill-opacity:1;stroke-width:0.720318;stroke-linecap:round"
       id="rect2-4-2"
       width="33.866665"
       height="67.73333"
       x="-243.23683"
       y="158.19284"
       rx="0"
       ry="0" />
    <path
       id="rect1-1-7-5"
       style="fill:#c1b490;fill-opacity:1;stroke-width:0.654724;stroke-linecap:round"
       d="m -66.27064,189.94469 c 0.81867,2.60343 5.44407,6.48566 12.34313,6.48566 6.89906,0 10.26116,-2.43861 12.64056,-6.48566 8.327903,-13.69194 -5.05623,-5.65415 0,-17.90483 0,-2.78595 -5.59279,-5.04441 -12.49185,-5.04441 -6.89906,0 -13.39355,2.48155 -12.49184,5.04441 3.86652,10.98958 -4.7588,2.77163 0,17.90483 z"
       sodipodi:nodetypes="ssccsss" />
    <circle
       style="fill:#71584b;fill-opacity:1;stroke-width:0.264583;stroke-linecap:round"
       id="path2-6-4"
       cx="-53.038017"
       cy="183.33177"
       r="6.8117061" />
    <path
       style="fill:#ff3e37;fill-opacity:1;stroke-width:0.13817;stroke-linecap:round"
       d="m -57.019886,175.56213 3.686567,-2.22287 4.941505,2.31248 h -1.917349 l -3.408616,-1.25457 -1.597794,1.34418 z"
       id="path3-5-7" />
    <path
       style="fill:#ff3e37;fill-opacity:1;stroke-width:0.13817;stroke-linecap:round"
       d="m -57.232922,173.618 3.686567,-2.22285 4.941497,2.31247 h -1.917349 l -3.408616,-1.25457 -1.597794,1.34419 z"
       id="path3-1-6-4" />
    <path
       style="fill:#ff3e37;fill-opacity:1;stroke-width:0.13817;stroke-linecap:round"
       d="m -57.445966,171.55692 3.686567,-2.22285 4.941505,2.31247 h -1.917349 l -3.408616,-1.25458 -1.597794,1.34419 z"
       id="path3-0-9-4" />
    <rect
       style="fill:#000000;fill-opacity:1;stroke-width:0.720318;stroke-linecap:round"
       id="rect2-9"
       width="33.866665"
       height="67.73333"
       x="-277.10352"
       y="90.459511"
       rx="0"
       ry="0" />
    <path
       id="rect1-1-2"
       style="fill:#c1b490;fill-opacity:1;stroke-width:0.654724;stroke-linecap:round"
       d="m -100.1373,122.21137 c 0.818668,2.60343 5.444074,6.48566 12.343132,6.48566 6.899053,0 10.261158,-2.43861 12.640557,-6.48566 8.327902,-13.69194 -5.056225,-25.762478 0,-38.013161 3e-6,-2.785948 -5.59279,-5.044405 -12.491845,-5.044405 -6.89906,0 -13.393554,2.481546 -12.491844,5.044405 3.866521,10.989583 -4.7588,22.879961 0,38.013161 z"
       sodipodi:nodetypes="ssccsss" />
    <circle
       style="fill:#71584b;fill-opacity:1;stroke-width:0.264583;stroke-linecap:round"
       id="path2-2"
       cx="-86.904686"
       cy="115.59844"
       r="6.8117061" />
    <g
       id="g3"
       transform="translate(-30.495452,11.038231)">
      <path
         style="fill:#a6dea0;fill-opacity:1;stroke-width:0.264583;stroke-linecap:round"
         d="m -61.383324,94.323951 4.57853,-6.56306 6.137095,6.82764 h -2.38125 l -4.233333,-3.70416 -1.984375,3.96875 z"
         id="path3-8" />
      <path
         style="fill:#71584b;fill-opacity:1;stroke-width:0.264583;stroke-linecap:round"
         d="m -61.647912,88.583891 4.57853,-6.56306 6.137095,6.82765 h -2.38125 l -4.233333,-3.70417 -1.984375,3.96875 z"
         id="path3-1-9" />
      <path
         style="fill:#71584b;fill-opacity:1;stroke-width:0.264583;stroke-linecap:round"
         d="m -61.912495,82.498481 4.57853,-6.563066 6.137095,6.827646 h -2.38125 l -4.233333,-3.70417 -1.984375,3.96875 z"
         id="path3-0-7" />
    </g>
    <rect
       style="fill:#000000;fill-opacity:1;stroke-width:0.720318;stroke-linecap:round"
       id="rect2-9-9"
       width="33.866665"
       height="67.73333"
       x="-243.23683"
       y="90.459511"
       rx="0"
       ry="0" />
    <path
       id="rect1-1-2-3"
       style="fill:#c1b490;fill-opacity:1;stroke-width:0.654724;stroke-linecap:round"
       d="m -66.270633,122.21137 c 0.818668,2.60343 5.444074,6.48566 12.343132,6.48566 6.899053,0 10.261158,-2.43861 12.640557,-6.48566 8.327902,-13.69194 -5.056225,-25.762478 0,-38.013163 3e-6,-2.785948 -5.59279,-5.044405 -12.491845,-5.044405 -6.89906,0 -13.393554,2.481546 -12.491844,5.044405 3.866521,10.989585 -4.7588,22.879963 0,38.013163 z"
       sodipodi:nodetypes="ssccsss" />
    <circle
       style="fill:#71584b;fill-opacity:1;stroke-width:0.264583;stroke-linecap:round"
       id="path2-2-1"
       cx="-53.038017"
       cy="115.59843"
       r="6.8117061" />
    <g
       id="g3-9"
       transform="translate(3.3712152,11.038229)">
      <path
         style="fill:#71584b;fill-opacity:1;stroke-width:0.264583;stroke-linecap:round"
         d="m -61.383324,94.323951 4.57853,-6.56306 6.137095,6.82764 h -2.38125 l -4.233333,-3.70416 -1.984375,3.96875 z"
         id="path3-8-4" />
      <path
         style="fill:#a6dea0;fill-opacity:1;stroke-width:0.264583;stroke-linecap:round"
         d="m -61.647912,88.583891 4.57853,-6.56306 6.137095,6.82765 h -2.38125 l -4.233333,-3.70417 -1.984375,3.96875 z"
         id="path3-1-9-7" />
      <path
         style="fill:#71584b;fill-opacity:1;stroke-width:0.264583;stroke-linecap:round"
         d="m -61.912495,82.498481 4.57853,-6.563066 6.137095,6.827646 h -2.38125 l -4.233333,-3.70417 -1.984375,3.96875 z"
         id="path3-0-7-8" />
    </g>
    <rect
       style="fill:#000000;fill-opacity:1;stroke-width:0.720318;stroke-linecap:round"
       id="rect2-9-6"
       width="33.866665"
       height="67.73333"
       x="-209.37016"
       y="90.459511"
       rx="0"
       ry="0" />
    <path
       id="rect1-1-2-1"
       style="fill:#c1b490;fill-opacity:1;stroke-width:0.654724;stroke-linecap:round"
       d="m -32.403966,122.21137 c 0.818668,2.60343 5.444074,6.48566 12.343132,6.48566 6.899053,0 10.2611583,-2.43861 12.6405573,-6.48566 8.32790203,-13.69194 -5.0562253,-25.762477 0,-38.01316 3e-6,-2.785948 -5.5927903,-5.044405 -12.4918453,-5.044405 -6.89906,0 -13.393554,2.481546 -12.491844,5.044405 3.866521,10.989583 -4.7588,22.87996 0,38.01316 z"
       sodipodi:nodetypes="ssccsss" />
    <circle
       style="fill:#71584b;fill-opacity:1;stroke-width:0.264583;stroke-linecap:round"
       id="path2-2-0"
       cx="-19.171352"
       cy="115.59844"
       r="6.8117061" />
    <g
       id="g3-6"
       transform="translate(37.237882,11.038232)">
      <path
         style="fill:#71584b;fill-opacity:1;stroke-width:0.264583;stroke-linecap:round"
         d="m -61.383324,94.323951 4.57853,-6.56306 6.137095,6.82764 h -2.38125 l -4.233333,-3.70416 -1.984375,3.96875 z"
         id="path3-8-3" />
      <path
         style="fill:#71584b;fill-opacity:1;stroke-width:0.264583;stroke-linecap:round"
         d="m -61.647912,88.583891 4.57853,-6.56306 6.137095,6.82765 h -2.38125 l -4.233333,-3.70417 -1.984375,3.96875 z"
         id="path3-1-9-2" />
      <path
         style="fill:#a6dea0;fill-opacity:1;stroke-width:0.264583;stroke-linecap:round"
         d="m -61.912495,82.498481 4.57853,-6.563066 6.137095,6.827646 h -2.38125 l -4.233333,-3.70417 -1.984375,3.96875 z"
         id="path3-0-7-0" />
    </g>
  </g>
</svg>
