<?xml version="1.0" encoding="UTF-8" standalone="no"?>
<!-- Created with Inkscape (http://www.inkscape.org/) -->

<svg
   width="640"
   height="256.00003"
   viewBox="0 0 169.33333 67.733338"
   version="1.1"
   id="svg1"
   sodipodi:docname="cannon_fire.svg"
   inkscape:version="1.4.4 (dcaf3e7d9e, 2026-05-05)"
   inkscape:export-filename="seminar_2026/items/icon_Gravity.png"
   inkscape:export-xdpi="96"
   inkscape:export-ydpi="96"
   xmlns:inkscape="http://www.inkscape.org/namespaces/inkscape"
   xmlns:sodipodi="http://sodipodi.sourceforge.net/DTD/sodipodi-0.dtd"
   xmlns="http://www.w3.org/2000/svg"
   xmlns:svg="http://www.w3.org/2000/svg">
  <sodipodi:namedview
     id="namedview1"
     pagecolor="#ff8e8e"
     bordercolor="#000000"
     borderopacity="0.25"
     inkscape:showpageshadow="2"
     inkscape:pageopacity="0.0"
     inkscape:pagecheckerboard="0"
     inkscape:deskcolor="#d1d1d1"
     inkscape:document-units="mm"
     inkscape:zoom="0.70710682"
     inkscape:cx="-334.46149"
     inkscape:cy="582.65596"
     inkscape:window-width="2327"
     inkscape:window-height="1227"
     inkscape:window-x="0"
     inkscape:window-y="0"
     inkscape:window-maximized="1"
     inkscape:current-layer="layer1"
     showgrid="false"
     showguides="false" />
  <defs
     id="defs1" />
  <g
     inkscape:label="Layer 1"
     inkscape:groupmode="layer"
     id="layer1"
     transform="translate(138.10025,-62.022038)">
    <rect
       style="fill:#000000;fill-opacity:1;stroke-width:0.720318;stroke-linecap:round"
       id="rect2-1"
       width="33.866665"
       height="67.73333"
       x="-138.10025"
       y="173.15269"
       rx="0"
       ry="0" />
    <rect
       style="fill:#000000;fill-opacity:1;stroke-width:0.720318;stroke-linecap:round"
       id="rect2-1-5-7"
       width="33.866665"
       height="67.73333"
       x="-2.6335831"
       y="173.15271"
       rx="0"
       ry="0" />
    <path
       style="fill:#f8f000;fill-opacity:1;stroke-width:0.264583;stroke-linecap:round"
       d="m -125.37823,125.258 -8.04481,-7.48355 8.98026,0.56127 -4.30304,-7.10937 9.54152,3.55469 -0.74835,-8.04481 4.67721,7.10936 6.73519,-2.05797 -2.43215,5.79975 2.80633,2.80633 -5.98684,4.30303 z"
       id="path3" />
    <rect
       style="fill:#000000;fill-opacity:1;stroke-width:0.720318;stroke-linecap:round"
       id="rect2-1-2"
       width="33.866665"
       height="67.73333"
       x="-104.23358"
       y="173.15269"
       rx="0"
       ry="0" />
    <rect
       style="fill:#000000;fill-opacity:1;stroke-width:0.720318;stroke-linecap:round"
       id="rect2-1-2-5"
       width="33.866665"
       height="67.73333"
       x="-70.366913"
       y="173.15269"
       rx="0"
       ry="0" />
    <path
       style="fill:#f8f000;fill-opacity:1;stroke-width:0.264583;stroke-linecap:round"
       d="m -93.006456,125.258 -8.044814,-7.48355 5.612668,-4.30304 -2.993419,-13.844557 9.54152,3.554687 -0.74835,-8.044807 4.67721,7.109357 8.04481,-5.425563 -1.870884,16.837983 5.238483,1.6838 -8.231904,9.35442 z"
       id="path3-6"
       sodipodi:nodetypes="cccccccccccc" />
    <path
       style="fill:#f8f000;fill-opacity:1;stroke-width:0.264583;stroke-linecap:round"
       d="m -57.833784,125.258 c -0.748356,-0.18709 -4.677217,-7.85772 -4.677217,-7.85772 0,0 5.612659,1.87089 5.051393,0.93544 -0.561266,-0.93544 -8.973013,-25.069878 -8.973013,-25.069878 l 6.353773,4.864306 -3.741775,-18.1476 3.554685,3.367596 -0.561265,-9.167345 5.051393,2.619242 1.6838,-10.851143 3.928859,10.664054 8.793168,0.935444 -7.483547,5.238482 5.986838,0.748354 -5.051393,7.670635 5.238483,7.670636 -6.735194,5.799747 h 8.980257 l -5.238482,9.35443 2.993419,4.49013 -3.928862,4.11595 z"
       id="path4"
       sodipodi:nodetypes="ccsccccccccccccccccccc" />
    <rect
       style="fill:#000000;fill-opacity:1;stroke-width:0.720318;stroke-linecap:round"
       id="rect2-1-2-5-9"
       width="33.866665"
       height="67.73333"
       x="-36.500248"
       y="173.15269"
       rx="0"
       ry="0" />
    <path
       style="fill:#f8f000;fill-opacity:1;stroke-width:0.264583;stroke-linecap:round"
       d="m -24.438458,125.258 -4.677217,-8.60607 5.238482,4.67721 -5.986838,-14.40582 6.548104,2.61924 -7.670635,-14.780008 6.73519,5.612658 -6.73519,-20.018485 6.173925,5.986837 1.309621,-14.218738 3.367595,13.283295 5.612659,-0.374178 -3.180506,7.109369 4.303038,2.806329 -3.367595,5.986841 8.620556,1.87088 -7.498024,10.10279 -3.554683,4.49013 5.799748,-0.93544 -1.300631,4.53092 2.048986,4.08239 z"
       id="path5"
       sodipodi:nodetypes="cccccccccccccccccccccc" />
    <path
       style="fill:#f81d1d;fill-opacity:1;stroke-width:0.264583;stroke-linecap:round"
       d="m -121.26227,122.54522 -4.67722,-1.49671 4.67722,-1.77734 0.46771,-3.27406 2.80634,2.15152 1.21608,-2.89987 3.55468,0.8419 -1.21607,3.18051 2.71278,0.56126 -4.40428,2.18464 z"
       id="path6"
       sodipodi:nodetypes="ccccccccccc" />
    <path
       style="fill:#f81d1d;fill-opacity:1;stroke-width:0.264583;stroke-linecap:round"
       d="m -84.031628,113.65851 c 0.280633,-0.74836 3.648229,-9.63507 3.648229,-9.63507 l -3.461139,2.33861 -2.712786,-2.43215 -0.742927,6.26747 -5.337455,-4.58368 1.403165,7.39001 -5.519116,5.51911 6.548104,4.11595 8.886711,-1.77734 1.028986,-3.83532 z"
       id="path7" />
    <path
       style="fill:#f81d1d;fill-opacity:1;stroke-width:0.264583;stroke-linecap:round"
       d="m -53.255544,78.579384 -0.935442,3.835318 -2.245066,-1.777343 v 8.418989 l -2.057974,-0.748354 1.777341,17.960516 -1.403165,-0.37418 1.590254,9.35443 6.548104,5.14494 1.122532,-4.02241 0.748353,-7.57709 -3.461139,-1.21607 2.899873,-9.260892 -4.209494,-8.138356 2.899875,-2.99342 -2.712786,-1.870886 2.525697,-4.490128 z"
       id="path8" />
    <path
       style="fill:#f81d1d;fill-opacity:1;stroke-width:0.264583;stroke-linecap:round"
       d="m -22.198826,87.840273 0.09354,2.899875 -1.590252,-0.841899 3.086963,13.002661 -2.432153,0.28063 1.590254,4.49013 -0.374179,5.7062 -1.777341,-0.93544 1.496708,6.17393 1.964431,3.74177 0.935445,-2.15152 -2.151521,-4.77076 7.390003,-9.9157 -3.461141,-0.65481 -2.138852,-6.173928 2.419485,-3.08696 -2.993419,-2.899873 2.245063,-4.770762 z"
       id="path9" />
  </g>
</svg>
